# Blender v2.79 (sub 0) OBJ File: ''
# www.blender.org
mtllib cornell3.mtl
o BlueWall
v 1.000000 -1.000000 -1.000000
v 1.000000 -1.000000 1.000000
v 1.000000 1.000000 -1.000000
v 1.000000 1.000000 1.000000
vn -1.0000 -0.0000 0.0000
usemtl BlueWall
s 1
f 1//1 2//1 3//1
f 4//1 3//1 2//1
o Floor
v -1.000000 -1.000000 -1.000000
v -1.000000 -1.000000 1.000000
v 1.000000 -1.000000 -1.000000
v 1.000000 -1.000000 1.000000
vn 0.0000 1.0000 0.0000
usemtl Floor
s 1
f 5//2 6//2 7//2
f 8//2 7//2 6//2
o Roof
v 1.000000 1.000000 1.000000
v -1.000000 1.000000 1.000000
v 1.000000 1.000000 -1.000000
v -1.000000 1.000000 -1.000000
vn 0.0000 -1.0000 -0.0000
usemtl Roof
s 1
f 9//3 10//3 11//3
f 12//3 11//3 10//3
o GreenWall
v -1.000000 -1.000000 1.000000
v -1.000000 -1.000000 -1.000000
v -1.000000 1.000000 1.000000
v -1.000000 1.000000 -1.000000
vn 1.0000 0.0000 0.0000
usemtl GreenWall
s 1
f 13//4 14//4 15//4
f 16//4 15//4 14//4
o RedWall
v -1.000000 -1.000000 -1.000000
v 1.000000 -1.000000 -1.000000
v -1.000000 1.000000 -1.000000
v 1.000000 1.000000 -1.000000
vn 0.0000 -0.0000 1.0000
usemtl RedWall
s 1
f 17//5 18//5 19//5
f 20//5 19//5 18//5
o RightBox
v 0.001116 -1.001799 0.432069
v 0.190429 -1.001799 0.005381
v 0.617300 -1.001799 0.194775
v 0.427987 -1.001799 0.621463
v 0.001116 -0.534799 0.432069
v 0.427987 -0.534799 0.621463
v 0.617300 -0.534799 0.194775
v 0.190429 -0.534799 0.005381
vn -0.0000 -1.0000 0.0000
vn 0.0000 1.0000 0.0000
vn -0.4056 -0.0000 0.9141
vn 0.9141 -0.0000 0.4056
vn 0.4056 0.0000 -0.9141
vn -0.9141 0.0000 -0.4056
usemtl RightBox
s 1
f 21//6 22//6 23//6
f 23//6 24//6 21//6
f 25//7 26//7 27//7
f 27//7 28//7 25//7
f 21//8 24//8 26//8
f 26//8 25//8 21//8
f 24//9 23//9 27//9
f 27//9 26//9 24//9
f 23//10 22//10 28//10
f 28//10 27//10 23//10
f 22//11 21//11 25//11
f 25//11 28//11 22//11
o LeftBox
v -0.548009 -1.000012 -0.013919
v -0.753735 -1.000012 -0.525107
v -0.242439 -1.000012 -0.730810
v -0.036737 -1.000012 -0.219514
v -0.548009 0.120052 -0.013919
v -0.036737 0.120052 -0.219513
v -0.242439 0.120052 -0.730809
v -0.753735 0.120052 -0.525107
vn -0.0000 -1.0000 0.0000
vn 0.0000 1.0000 0.0000
vn 0.3731 -0.0000 0.9278
vn 0.9277 0.0000 -0.3732
vn -0.3732 0.0000 -0.9277
vn -0.9277 -0.0000 0.3733
usemtl LeftBox
s 1
f 29//12 30//12 31//12
f 31//12 32//12 29//12
f 33//13 34//13 35//13
f 35//13 36//13 33//13
f 29//14 32//14 34//14
f 34//14 33//14 29//14
f 32//15 31//15 35//15
f 35//15 34//15 32//15
f 31//16 30//16 36//16
f 36//16 35//16 31//16
f 30//17 29//17 33//17
f 33//17 36//17 30//17
